<?xml version="1.0" encoding="UTF-8"?>
<svg id="Layer_2" data-name="Layer 2" xmlns="http://www.w3.org/2000/svg" viewBox="0 0 24.85 23.39">
  <defs>
    <style>
      .cls-1 {
        fill: #fffffa;
        stroke-width: 0px;
      }
    </style>
  </defs>
  <g id="Layer_1-2" data-name="Layer 1">
    <path class="cls-1" d="m24.85,11.02v1.35c0,.32-.26.58-.58.58H4.73l.47.44,8.65,8.03c.12.1.18.24.18.41.01.15-.04.3-.15.41l-.91.97c-.12.12-.27.18-.42.18s-.3-.05-.4-.15L.19,12.12c-.13-.1-.19-.26-.19-.42,0-.15.06-.31.19-.42L12.15.17c.1-.1.24-.17.4-.17s.31.08.42.19l.91.98c.12.12.17.26.15.41,0,.15-.06.3-.18.41L5.23,10.01l-.47.44h19.51c.32,0,.58.26.58.58Z"/>
  </g>
</svg>