<svg xmlns="http://www.w3.org/2000/svg" viewBox="0 0 199.34 55.02"><defs><style>.cls-1{fill:none;stroke:#f6921e;stroke-miterlimit:10;stroke-dasharray:10.09 10.09;}</style></defs><g id="Layer_2" data-name="Layer 2"><g id="Layer_1-2" data-name="Layer 1"><path class="cls-1" d="M197,52.19a7.71,7.71,0,0,1-5.59,2.33H8a7.71,7.71,0,0,1-5.6-2.34,6.75,6.75,0,0,1-1.85-5L2.7,9.07A4.86,4.86,0,0,1,4.12,5.81,6.58,6.58,0,0,1,8.14,4l1.43-.14L14.1,1.28a6.21,6.21,0,0,1,3-.78H182.22a6.21,6.21,0,0,1,3,.78l4.6,2.59,1.47.16a6.36,6.36,0,0,1,4,1.87,4.79,4.79,0,0,1,1.37,3.16l2.18,38.09A6.75,6.75,0,0,1,197,52.19Z"/></g></g></svg>