<svg xmlns="http://www.w3.org/2000/svg" viewBox="0 0 198.34 54.02"><defs><style>.cls-1,.cls-3{fill:#f6921e;}.cls-2,.cls-4{fill:#fffffa;}.cls-3,.cls-4{stroke:#f6921e;stroke-miterlimit:10;}</style></defs><g id="Layer_2" data-name="Layer 2"><g id="Layer_1-2" data-name="Layer 1"><path class="cls-1" d="M194.83,46.85a3.68,3.68,0,0,1-4,3.66h-2.62l-.4-1.94-3-14.45-.08.05c-19.6,10.5-151.67,10.44-171.25,0l-.09-.06-3,14.46-.4,1.94H7.46a3.67,3.67,0,0,1-3.94-3.66l.09-1.66L5.7,8.77A3.56,3.56,0,0,1,7.63,5.93l6.18-3.48.55-.31a4.64,4.64,0,0,1,2.27-.58H181.72a4.57,4.57,0,0,1,2.26.58l.57.32,6.11,3.43.16.08a3.62,3.62,0,0,1,1.83,2.8l2.08,36.42Z"/><path class="cls-1" d="M198.33,46.66l-2.18-38.1a4.81,4.81,0,0,0-1.37-3.16,6.36,6.36,0,0,0-4-1.87l-1.47-.16L185.7,3a7,7,0,0,0-1.15-.52l-.15-.06h0A8.24,8.24,0,0,0,181.72,2H16.63A8.24,8.24,0,0,0,14,2.39h0l-.15.05A7.14,7.14,0,0,0,12.65,3l-3.59.36-1.42.14a6.51,6.51,0,0,0-4,1.83A4.86,4.86,0,0,0,2.2,8.57L0,46.65a6.73,6.73,0,0,0,1.85,5A7.71,7.71,0,0,0,7.46,54H190.88a7.71,7.71,0,0,0,5.59-2.33A6.73,6.73,0,0,0,198.33,46.66ZM15.32,3.84a2.63,2.63,0,0,1,1.31-.33H181.72a2.63,2.63,0,0,1,1.31.33l2.67,1.5.22.12,3.78,2.13.16.09a1.64,1.64,0,0,1,.84,1.2L192.54,41l.34,6a1.32,1.32,0,0,1-.37,1,2.25,2.25,0,0,1-1.63.63h-3l.4,1.94H10.09l.4-1.94h-3a2.2,2.2,0,0,1-1.63-.64,1.28,1.28,0,0,1-.37-1l.34-6L7.64,8.89a1.67,1.67,0,0,1,1-1.27l3.83-2.15.23-.13Z"/><path class="cls-2" d="M194.2,8.68a5.17,5.17,0,0,0-2.58-4l-.05,0-.06,0-.12-.06-2-1.15L184.75.78a6.21,6.21,0,0,0-3-.78H16.63a6.21,6.21,0,0,0-3,.78L9.06,3.34,6.87,4.57A5.13,5.13,0,0,0,4.14,8.68L2.05,45.1,2,46.76a4.74,4.74,0,0,0,1.32,3.58,5.74,5.74,0,0,0,4.18,1.73H190.88a5.75,5.75,0,0,0,4.17-1.72,4.81,4.81,0,0,0,1.34-3.58Zm-3.32,41.83H7.46a3.67,3.67,0,0,1-3.94-3.66l.09-1.66L5.7,8.77A3.56,3.56,0,0,1,7.63,5.93l6.18-3.48.55-.31a4.64,4.64,0,0,1,2.27-.58H181.72a4.57,4.57,0,0,1,2.26.58l.57.32,6.11,3.43.16.08a3.62,3.62,0,0,1,1.83,2.8l2.08,36.42.1,1.66A3.68,3.68,0,0,1,190.88,50.51Z"/><path class="cls-3" d="M188.26,50.51H10.09l.4-1.94,3-14.46.09.06c19.58,10.44,151.65,10.5,171.25,0l.08-.05,3,14.45Z"/><path class="cls-4" d="M194.83,46.85a3.68,3.68,0,0,1-4,3.66h-2.62l-.4-1.94-3-14.45-.08.05c-19.6,10.5-151.67,10.44-171.25,0l-.09-.06-3,14.46-.4,1.94H7.46a3.67,3.67,0,0,1-3.94-3.66l.09-1.66L5.7,8.77A3.56,3.56,0,0,1,7.63,5.93l6.18-3.48.55-.31a3.73,3.73,0,0,0-.39.25h0A3.44,3.44,0,0,0,12.45,5l0,.37H185.91l0-.37A3.42,3.42,0,0,0,184.4,2.4h0l-.4-.25.57.32,6.11,3.43.16.08a3.62,3.62,0,0,1,1.83,2.8l2.08,36.42Z"/><path class="cls-4" d="M187.19,30.09c0,.22,0,.44,0,.66a2.79,2.79,0,0,1-.06.33c0,.07,0,.15,0,.22a.14.14,0,0,1,0,.07c0,.14-.08.25-.12.38a3.9,3.9,0,0,1-.2.47,2,2,0,0,1-.24.4.35.35,0,0,1-.06.09c-.08.12-.17.23-.26.34a.4.4,0,0,1-.11.12,2.76,2.76,0,0,1-.3.29,5.55,5.55,0,0,1-.89.66l-.08.05c-19.6,10.5-151.67,10.44-171.25,0l-.09-.06c-.16-.1-.32-.2-.47-.31h0a4.35,4.35,0,0,1-.41-.34,2,2,0,0,1-.29-.29l-.12-.12L12,32.76l-.16-.23a3.71,3.71,0,0,1-.52-1.23c0-.07,0-.15,0-.22a1.63,1.63,0,0,1-.05-.33,4.85,4.85,0,0,1,0-.66L12.42,5.47V5.34h0V5A3.44,3.44,0,0,1,14,2.4h0a3.73,3.73,0,0,1,.39-.25,4.64,4.64,0,0,1,2.27-.58H181.72a4.57,4.57,0,0,1,2.26.58l.4.25h0A3.42,3.42,0,0,1,185.89,5l0,.37v.12Z"/><path class="cls-4" d="M13.46,34.11l-3,14.46-.4,1.94H7.46a3.67,3.67,0,0,1-3.94-3.66l.09-1.66L5.8,41l5.37-10.26a1.63,1.63,0,0,0,.05.33c0,.07,0,.15,0,.22a3.71,3.71,0,0,0,.52,1.23l.16.23.21.29.12.12a2,2,0,0,0,.29.29,4.35,4.35,0,0,0,.41.34h0C13.14,33.91,13.3,34,13.46,34.11Z"/><path class="cls-4" d="M194.83,46.85a3.68,3.68,0,0,1-4,3.66h-2.62l-.4-1.94-3-14.45a5.55,5.55,0,0,0,.89-.66,2.76,2.76,0,0,0,.3-.29.4.4,0,0,0,.11-.12c.09-.11.18-.22.26-.34a.35.35,0,0,0,.06-.09,2,2,0,0,0,.24-.4,3.9,3.9,0,0,0,.2-.47c0-.13.09-.24.12-.38a.14.14,0,0,0,0-.07c0-.07,0-.15,0-.22a2.79,2.79,0,0,0,.06-.33L192.54,41l2.19,4.19Z"/></g></g></svg>