<svg xmlns="http://www.w3.org/2000/svg" viewBox="0 0 167.91 99.26"><defs><style>.cls-1{fill:#fffffa;}.cls-2{fill:#f6921e;}.cls-3{fill:#fff;}</style></defs><g id="Layer_2" data-name="Layer 2"><g id="Layer_1-2" data-name="Layer 1"><path class="cls-1" d="M10.34,48,4.8,54.86,4.72,9.28a1.6,1.6,0,0,1,.42-1.09l5.14-4.57Z"/><path class="cls-1" d="M13.16,50.75,9.1,59.92H6.4a1.59,1.59,0,0,1-.62-.12h0a1.77,1.77,0,0,1-.5-.34,1.6,1.6,0,0,1-.47-1.13v-2l5.74-7.17a.59.59,0,0,1,0,.08,1.28,1.28,0,0,0,.11.2,1.12,1.12,0,0,0,.1.16,1.59,1.59,0,0,0,.26.32,2.79,2.79,0,0,0,.42.35,1.26,1.26,0,0,0,.32.18,1.43,1.43,0,0,0,.34.14,1.9,1.9,0,0,0,.36.09h0a2.22,2.22,0,0,0,.37,0Z"/><polygon class="cls-1" points="100.9 60.15 100.94 80.4 100.9 80.06 100.9 60.15"/><polygon class="cls-1" points="156.3 2.43 156.25 2.38 156.26 2.38 156.3 2.43"/><path class="cls-1" d="M163.07,89.45V93A1.58,1.58,0,0,1,162,94.47a1.5,1.5,0,0,1-.52.09h-2.64l-.32-.94-3.73-11.05H155l.29,0,.27,0a2.5,2.5,0,0,0,.63-.24.88.88,0,0,0,.23-.14l.14-.1a1.92,1.92,0,0,0,.22-.18,3.73,3.73,0,0,0,.26-.3,2.8,2.8,0,0,0,.2-.32.86.86,0,0,0,.11-.24,1.25,1.25,0,0,0,.09-.25,2.68,2.68,0,0,0,.07-.27L162.13,88l.93,1.49Z"/><path class="cls-1" d="M163.2,9.28l-.13,78.4-.94-1.51-4.59-7.43h0l.12-75.1L162.58,8l.19.17A1.58,1.58,0,0,1,163.2,9.28Z"/><path class="cls-2" d="M100.9,60.15V80.07l0,.33Z"/><path class="cls-3" d="M13.16,50.75,9.1,59.92H6.4a1.59,1.59,0,0,1-.62-.12h0a1.43,1.43,0,0,1-.5-.34,1.6,1.6,0,0,1-.47-1.13v-2l5.74-7.17a.59.59,0,0,1,0,.08,1.28,1.28,0,0,0,.11.2,1.12,1.12,0,0,0,.1.16,1.59,1.59,0,0,0,.26.32,2.79,2.79,0,0,0,.42.35,1.26,1.26,0,0,0,.32.18,1.43,1.43,0,0,0,.34.14,1.9,1.9,0,0,0,.36.09h0a2.22,2.22,0,0,0,.37,0Z"/><path class="cls-3" d="M163.06,89.44V93A1.58,1.58,0,0,1,162,94.47a1.32,1.32,0,0,1-.53.1h-2.63l-.32-.94-3.73-11.05H155l.29,0,.27,0a2.5,2.5,0,0,0,.63-.24.88.88,0,0,0,.23-.14l.14-.1a1.92,1.92,0,0,0,.22-.18,3.73,3.73,0,0,0,.26-.3,2.8,2.8,0,0,0,.2-.32.86.86,0,0,0,.11-.24,1.25,1.25,0,0,0,.09-.25,2.68,2.68,0,0,0,.07-.27L162.13,88Z"/><path class="cls-2" d="M161.47,94.56h0a1.32,1.32,0,0,0,.53-.1A1.5,1.5,0,0,1,161.47,94.56ZM100.9,80.06v0l0,.33ZM5.27,59.46a1.43,1.43,0,0,0,.5.34A1.77,1.77,0,0,1,5.27,59.46Z"/><path class="cls-2" d="M156.26,2.38h0l.05.05Zm0,0h0l.05.05Zm0,0h0l.05.05Zm0,0h0l.05.05Zm0,0h0l.05.05Zm0,0h0l.05.05Zm11.55,6.15a5.26,5.26,0,0,0-5-3.9l-1.2,0,2.49,2.23,0,0,0,0a3.37,3.37,0,0,1,1,2.4L164.94,93a3.48,3.48,0,0,1-3.48,3.46H104a3.45,3.45,0,0,1-3.44-3.06L99,80.22V61.8H6.4a3.49,3.49,0,0,1-3.48-3.47l-.09-49a3.46,3.46,0,0,1,1-2.41l0,0,0,0,.21-.2L6.39,4.56H5.58A5.52,5.52,0,0,0,.1,8.62a2.41,2.41,0,0,0-.1.66L.09,58.33a6.31,6.31,0,0,0,6.31,6.3H96.19V80.17c0,.09,0,.17,0,.26L97.7,93.7A6.3,6.3,0,0,0,104,99.26h57.51A6.31,6.31,0,0,0,167.77,93l.14-83.7A3,3,0,0,0,167.81,8.53ZM156.26,2.38h0l.05.05Zm0,0h0l.05.05Zm0,0h0l.05.05Zm0,0h0l.05.05Zm0,0h0l.05.05Zm0,0h0l.05.05Z"/><path class="cls-1" d="M164.12,6.88l0,0,0,0-2.49-2.23-4-3.6L157.31.8a3.36,3.36,0,0,0-2.2-.8H12.81a3.49,3.49,0,0,0-2.23.81l-.2.19-4,3.56L4.07,6.62l-.21.2,0,0,0,0a3.46,3.46,0,0,0-1,2.41l.09,49.05A3.49,3.49,0,0,0,6.4,61.8H99V80.22l1.49,13.16A3.45,3.45,0,0,0,104,96.44h57.51A3.48,3.48,0,0,0,164.94,93l.14-83.7A3.37,3.37,0,0,0,164.12,6.88ZM164,93a2.53,2.53,0,0,1-2.53,2.52H104a2.53,2.53,0,0,1-2.51-2.22L100,80.12V60.87H6.4a2.54,2.54,0,0,1-2.54-2.53l-.08-49a2.54,2.54,0,0,1,.71-1.76l.21-.19L7.8,4.57,11,1.7l.18-.16a2.5,2.5,0,0,1,1.62-.6h142.3a2.47,2.47,0,0,1,1.6.59l.21.17,3.19,2.86,3.33,3a2.47,2.47,0,0,1,.7,1.75Z"/><path class="cls-2" d="M157.83,94.56H104a1.6,1.6,0,0,1-1.58-1.47l-1.23-10.9a2.79,2.79,0,0,0,.59.26,2.39,2.39,0,0,0,.77.12h51.28l3.73,11.05Z"/><path class="cls-2" d="M100,52.34v7.59H10.14l4-9.17H98.37A1.59,1.59,0,0,1,100,52.34Z"/><polygon class="cls-1" points="100.94 80.4 100.89 80.07 100.9 60.15 100.94 80.4"/><path class="cls-2" d="M163.44,7.53l-3.33-3L156.92,1.7l-.21-.17a2.47,2.47,0,0,0-1.6-.59H12.81a2.5,2.5,0,0,0-1.62.6L11,1.7,7.8,4.57,4.7,7.33l-.21.19a2.54,2.54,0,0,0-.71,1.76l.08,49.05A2.54,2.54,0,0,0,6.4,60.86H100V80.12l1.48,13.16A2.53,2.53,0,0,0,104,95.5h57.52A2.53,2.53,0,0,0,164,93l.14-83.7A2.47,2.47,0,0,0,163.44,7.53ZM5.14,8.19l5.14-4.57L10.34,48,4.8,54.86,4.72,9.28A1.6,1.6,0,0,1,5.14,8.19ZM6.4,59.92a1.59,1.59,0,0,1-.62-.12h0a1.43,1.43,0,0,1-.5-.34,1.6,1.6,0,0,1-.47-1.13v-2l5.74-7.17a.59.59,0,0,1,0,.08,1.28,1.28,0,0,0,.11.2,1.12,1.12,0,0,0,.1.16,1.59,1.59,0,0,0,.26.32,2.79,2.79,0,0,0,.42.35,1.26,1.26,0,0,0,.32.18,1.43,1.43,0,0,0,.34.14,1.9,1.9,0,0,0,.36.09h0a2.22,2.22,0,0,0,.37,0h.28L9.1,59.92Zm93.56,0H10.14l4-9.17H98.37A1.59,1.59,0,0,1,100,52.34Zm.93,20.14V52.34a2.54,2.54,0,0,0-2.54-2.54H12.88a1.59,1.59,0,0,1-1.59-1.59L11.22,3.49A1.84,1.84,0,0,1,11.29,3a1.53,1.53,0,0,1,.37-.63l.14-.13a1.55,1.55,0,0,1,1-.37H155.1a1.52,1.52,0,0,1,1,.36l.16.13h0l0,.05s0,0,0,0l0,0a1.56,1.56,0,0,1,.27.53,1.4,1.4,0,0,1,.08.47L156.59,80a1.6,1.6,0,0,1-1.6,1.59H102.5a1.45,1.45,0,0,1-.47-.07,1.55,1.55,0,0,1-1.09-1.16ZM104,94.56a1.6,1.6,0,0,1-1.58-1.47l-1.23-10.9a2.79,2.79,0,0,0,.59.26,2.39,2.39,0,0,0,.77.12h51.28l3.73,11.05.32.94ZM163.06,93A1.58,1.58,0,0,1,162,94.47a1.32,1.32,0,0,1-.53.1h-2.63l-.32-.94-3.73-11.05H155l.29,0,.27,0a2.5,2.5,0,0,0,.63-.24.88.88,0,0,0,.23-.14l.14-.1a1.92,1.92,0,0,0,.22-.18,3.73,3.73,0,0,0,.26-.3,2.8,2.8,0,0,0,.2-.32.86.86,0,0,0,.11-.24,1.25,1.25,0,0,0,.09-.25,2.68,2.68,0,0,0,.07-.27L162.13,88l.93,1.49h0Zm0-5.3-.94-1.51-4.59-7.43h0l.12-75.1L162.58,8l.19.17a1.58,1.58,0,0,1,.43,1.09Z"/><path class="cls-1" d="M156.71,3.49,156.59,80a1.6,1.6,0,0,1-1.6,1.59H102.5a1.45,1.45,0,0,1-.47-.07,1.55,1.55,0,0,1-1.09-1.16l0-20.25V52.34a2.54,2.54,0,0,0-2.54-2.54H12.88a1.59,1.59,0,0,1-1.59-1.59L11.22,3.49A1.84,1.84,0,0,1,11.29,3a1.53,1.53,0,0,1,.37-.63l.14-.13a1.55,1.55,0,0,1,1-.37H155.1a1.52,1.52,0,0,1,1,.36l.16.13.05.05s0,0,0,0l0,0a1.56,1.56,0,0,1,.27.53A1.4,1.4,0,0,1,156.71,3.49Z"/><polygon class="cls-2" points="139.78 54.69 137.97 54.69 138.05 61.2 121.12 61.2 126.71 56.01 125.49 54.69 117.47 62.12 125.43 69.69 126.69 68.32 121.11 63.04 139.89 63.04 139.78 54.69"/></g></g></svg>