<?xml version="1.0" encoding="UTF-8"?>
<svg id="Layer_2" data-name="Layer 2" xmlns="http://www.w3.org/2000/svg" viewBox="0 0 16.63 16.63">
  <defs>
    <style>
      .cls-1 {
        fill: #f6921e;
        stroke-width: 0px;
      }
    </style>
  </defs>
  <g id="Layer_1-2" data-name="Layer 1">
    <path class="cls-1" d="m9.73,8.32l6.61-6.61c.39-.39.39-1.02,0-1.41s-1.02-.39-1.41,0l-6.61,6.61L1.71.29C1.32-.1.68-.1.29.29S-.1,1.32.29,1.71l6.61,6.61L.29,14.93c-.39.39-.39,1.02,0,1.41.2.2.45.29.71.29s.51-.1.71-.29l6.61-6.61,6.61,6.61c.2.2.45.29.71.29s.51-.1.71-.29c.39-.39.39-1.02,0-1.41l-6.61-6.61Z"/>
  </g>
</svg>