<?xml version="1.0" encoding="UTF-8"?>
<svg id="Layer_2" data-name="Layer 2" xmlns="http://www.w3.org/2000/svg" viewBox="0 0 21.94 21.94">
  <defs>
    <style>
      .cls-1 {
        fill: #fffffa;
        stroke-width: 0px;
      }
    </style>
  </defs>
  <g id="Layer_1-2" data-name="Layer 1">
    <path class="cls-1" d="m12.83,10.97L21.55,2.25c.52-.52.52-1.35,0-1.87s-1.35-.52-1.87,0l-8.72,8.72L2.25.39C1.74-.13.9-.13.39.39-.13.9-.13,1.74.39,2.25l8.72,8.72L.39,19.69c-.52.52-.52,1.35,0,1.87.26.26.6.39.93.39s.67-.13.93-.39l8.72-8.72,8.72,8.72c.26.26.6.39.93.39s.67-.13.93-.39c.52-.52.52-1.35,0-1.87l-8.72-8.72Z"/>
  </g>
</svg>