<svg id="Layer_1" data-name="Layer 1" xmlns="http://www.w3.org/2000/svg" viewBox="0 0 39.12 46.22"><defs><style>.cls-1{fill:#f6921e;}</style></defs><path class="cls-1" d="M34.49,32a19.41,19.41,0,0,0,4.38-14.85c0-.44-.12-.87-.2-1.29A19.52,19.52,0,0,0,18.49,0a19.51,19.51,0,0,0,2,39,18.21,18.21,0,0,0,2.78-.34l.75-.16a20.32,20.32,0,0,1-.12-3.41,19.28,19.28,0,0,1,1.45-6.4,28,28,0,0,0,1.54,8.87,30.8,30.8,0,0,0,1.5,3.54,28.53,28.53,0,0,0,3.36,5.13,19.3,19.3,0,0,0,2-4.28c.47,0,.94,0,1.41,0a19.32,19.32,0,0,0,4-.62A19.3,19.3,0,0,1,34.49,32ZM10.73,22.44a2.93,2.93,0,1,1,2.93-2.93A2.93,2.93,0,0,1,10.73,22.44Zm8.78,0a2.93,2.93,0,1,1,2.93-2.93A2.93,2.93,0,0,1,19.51,22.44Zm5.85-2.93a2.93,2.93,0,1,1,2.93,2.93A2.93,2.93,0,0,1,25.36,19.51Z"/></svg>