<svg id="Layer_1" data-name="Layer 1" xmlns="http://www.w3.org/2000/svg" viewBox="0 0 148.86 22.8"><defs><style>.cls-1{fill:#fffffa;}</style></defs><path class="cls-1" d="M14,4.76V7.22H11.12a5.23,5.23,0,0,1,.64.83,5.74,5.74,0,0,1,.5,1,6.6,6.6,0,0,1,.4,2.36,6.73,6.73,0,0,1-1.79,4.71A6,6,0,0,1,6.33,18,6,6,0,0,1,1.8,16.11,6.7,6.7,0,0,1,0,11.4,6.63,6.63,0,0,1,1.8,6.69,6,6,0,0,1,6.33,4.76ZM3.52,8.41a4.31,4.31,0,0,0-1.09,3,4.38,4.38,0,0,0,1.09,3,3.65,3.65,0,0,0,2.81,1.19,3.63,3.63,0,0,0,2.81-1.19,4.38,4.38,0,0,0,1.09-3,4.31,4.31,0,0,0-1.09-3A3.63,3.63,0,0,0,6.33,7.22,3.65,3.65,0,0,0,3.52,8.41Z"/><path class="cls-1" d="M16.65,5.07a3.67,3.67,0,0,1,.94.11,5.65,5.65,0,0,1,.94.34,4.6,4.6,0,0,1,1.25.88,3.44,3.44,0,0,1,.8,1.25,2.85,2.85,0,0,1,.07,1.87L20,11.83a2.75,2.75,0,0,0,.46,2.73,3,3,0,0,0,4.53,0,3.56,3.56,0,0,0,.68-1.2,4.56,4.56,0,0,0,.23-1.53,15.68,15.68,0,0,0-.2-2.57,12,12,0,0,0-.58-2.17q-.21-.51-.45-1a8.72,8.72,0,0,0-.54-1h2.73a14.86,14.86,0,0,1,1.5,6.68,6.61,6.61,0,0,1-1.62,4.54,5.3,5.3,0,0,1-4,1.74,5.63,5.63,0,0,1-1.16-.11,5.25,5.25,0,0,1-1.12-.37,5.61,5.61,0,0,1-1.9-1.31,3.56,3.56,0,0,1-.67-.92,4.88,4.88,0,0,1-.42-1.06,4.41,4.41,0,0,1,.07-2.51l.71-2.23a1.35,1.35,0,0,0-.28-1.41,1.67,1.67,0,0,0-1.29-.59h-.33V5.07Z"/><path class="cls-1" d="M33.49,16.49V22.8H31.13V5.07h2.46v6.76a4,4,0,0,0,.91,2.73,2.88,2.88,0,0,0,2.28,1A3,3,0,0,0,38,15.32a2.81,2.81,0,0,0,1-.76,3.25,3.25,0,0,0,.68-1.19,4.62,4.62,0,0,0,.23-1.54V5.07h2.46v9.29a1,1,0,0,0,.3.71,1,1,0,0,0,.74.3h.25v2.36h-.25a3.27,3.27,0,0,1-2.41-1,1.57,1.57,0,0,1-.28-.37,3.52,3.52,0,0,1-.18-.39,2.3,2.3,0,0,1-.15.23l-.15.2A4.12,4.12,0,0,1,36.78,18,3.91,3.91,0,0,1,33.49,16.49Z"/><path class="cls-1" d="M59.18,6.43a6.31,6.31,0,0,1,1.29,4.08,7.27,7.27,0,0,1-1.79,4.89,7.35,7.35,0,0,1-4.49,2.51V22.8H51.74V17.91a7.44,7.44,0,0,1-6.28-7.4,7.36,7.36,0,0,1,.6-2.94,8.31,8.31,0,0,1,.74-1.34,6.14,6.14,0,0,1,1-1.16l1.75,1.72a5.2,5.2,0,0,0-.7.78,5.59,5.59,0,0,0-.54.91,6.33,6.33,0,0,0-.32,1,4.54,4.54,0,0,0-.11,1,4.41,4.41,0,0,0,.29,1.63,5.35,5.35,0,0,0,.8,1.44,4.64,4.64,0,0,0,2.76,1.69V9a4.06,4.06,0,0,1,4.1-4.11A4.14,4.14,0,0,1,59.18,6.43ZM54.67,7.8A1.59,1.59,0,0,0,54.19,9v6.3A4.66,4.66,0,0,0,57,13.6,4.82,4.82,0,0,0,58,10.51a4.47,4.47,0,0,0-.53-2.3,1.8,1.8,0,0,0-1.65-.89A1.61,1.61,0,0,0,54.67,7.8Z"/><path class="cls-1" d="M73.51,6.69a6.63,6.63,0,0,1,1.8,4.71,6.7,6.7,0,0,1-1.8,4.71,6.32,6.32,0,0,1-9.07,0,6.69,6.69,0,0,1-1.79-4.71,6.62,6.62,0,0,1,1.79-4.71,6.29,6.29,0,0,1,9.07,0ZM66.17,8.41a4.31,4.31,0,0,0-1.09,3,4.38,4.38,0,0,0,1.09,3,3.91,3.91,0,0,0,5.62,0,4.42,4.42,0,0,0,1.09-3,4.35,4.35,0,0,0-1.09-3,3.91,3.91,0,0,0-5.62,0Z"/><path class="cls-1" d="M80.47,5.07v8.56A1.59,1.59,0,0,0,81,14.79a1.62,1.62,0,0,0,1.19.48h.61v2.46h-.61a4.11,4.11,0,0,1-4.1-4.1V5.07Z"/><path class="cls-1" d="M94,5.07V7.52H89.7v6.11a1.64,1.64,0,0,0,1.65,1.64h.25v2.46h-.25a4,4,0,0,1-2.92-1.22,3.93,3.93,0,0,1-1.19-2.88V7.52H83V5.07Z"/><path class="cls-1" d="M105.91,22.8V11A4,4,0,0,0,105,8.23a2.87,2.87,0,0,0-2.25-1,3,3,0,0,0-2.31,1,3.73,3.73,0,0,0-.66,1.19A5,5,0,0,0,99.58,11v6.76H97.12V8.43a.93.93,0,0,0-.28-.7,1,1,0,0,0-.73-.31H95.5V5.07h.61a3.25,3.25,0,0,1,2.38,1,3,3,0,0,1,.33.41,2.89,2.89,0,0,1,.22.43,1.37,1.37,0,0,1,.13-.2l.15-.21a4.65,4.65,0,0,1,3.75-1.72,4.92,4.92,0,0,1,3.83,1.72,5.9,5.9,0,0,1,1.1,2,8.47,8.47,0,0,1,.36,2.54V22.8Z"/><path class="cls-1" d="M120.73,5.07V7.52h-4.25v6.11a1.64,1.64,0,0,0,1.64,1.64h.26v2.46h-.26a4,4,0,0,1-2.91-1.22A3.93,3.93,0,0,1,114,13.63V7.52h-4.2V5.07Z"/><path class="cls-1" d="M132.68,22.8V11a4,4,0,0,0-.88-2.74,2.88,2.88,0,0,0-2.26-1,3,3,0,0,0-2.3,1,3.54,3.54,0,0,0-.66,1.19,5,5,0,0,0-.23,1.55v6.76H123.9V8.43a1,1,0,0,0-.28-.7,1,1,0,0,0-.74-.31h-.61V5.07h.61a3.23,3.23,0,0,1,2.38,1,2,2,0,0,1,.33.41,2.93,2.93,0,0,1,.23.43.86.86,0,0,1,.13-.2l.15-.21a4.62,4.62,0,0,1,3.75-1.72,4.9,4.9,0,0,1,3.82,1.72,5.74,5.74,0,0,1,1.1,2,8.16,8.16,0,0,1,.37,2.54V22.8ZM129.87,0h2.74l-1.7,3.37h-2.35Z"/><path class="cls-1" d="M148.51,6.69l-1.72,1.74a3.87,3.87,0,0,0-5.6,0,4.34,4.34,0,0,0-1.12,3,4.41,4.41,0,0,0,1,2.89,3.71,3.71,0,0,0,2.61,1.29q3.73.42,4.76,3.11a5.56,5.56,0,0,1,.12,4.11h-2.6a5.69,5.69,0,0,0,.46-1.46,3.11,3.11,0,0,0-.06-1.36c-.27-1.13-1.16-1.78-2.68-1.95a6.59,6.59,0,0,1-4.36-2.1,6.5,6.5,0,0,1-1.65-4.53,6.63,6.63,0,0,1,1.8-4.71,6.29,6.29,0,0,1,9.07,0Z"/></svg>