<svg xmlns="http://www.w3.org/2000/svg" viewBox="0 0 138.28 163.41"><defs><style>.cls-1{fill:#f6921e;}</style></defs><g id="Layer_2" data-name="Layer 2"><g id="Layer_1-2" data-name="Layer 1"><path class="cls-1" d="M122,113.27A68.94,68.94,0,0,0,74.63.24L73.56.16Q72.74.1,71.88.07c-.68,0-1.38,0-2.07,0l-.67,0h-.27c-1.16,0-2.33,0-3.5.08a69,69,0,0,0,3.55,137.84h.25l1.7-.05c1.12,0,2.24-.08,3.35-.16l1-.07a68.52,68.52,0,0,0,20-4.82,102.42,102.42,0,0,0,5.28,12.42,100.38,100.38,0,0,0,11.87,18.15,68.27,68.27,0,0,0,6.93-15.16c1.64.06,3.31,0,5-.05a66.53,66.53,0,0,0,14-2.2A68.29,68.29,0,0,1,122,113.27Z"/></g></g></svg>