<svg xmlns="http://www.w3.org/2000/svg" viewBox="0 0 40.57 50.39"><defs><style>.cls-1{fill:#f6921e;}</style></defs><g id="Layer_2" data-name="Layer 2"><g id="Layer_1-2" data-name="Layer 1"><path class="cls-1" d="M20.29,8.75A11.54,11.54,0,1,0,31.82,20.29,11.56,11.56,0,0,0,20.29,8.75Zm0,16.72a5.19,5.19,0,1,1,5.18-5.18A5.18,5.18,0,0,1,20.29,25.47ZM26,16.78a2.24,2.24,0,1,1,2.24-2.24A2.24,2.24,0,0,1,26,16.78Z"/><path class="cls-1" d="M31.83,3.59v8.25a14.29,14.29,0,0,0-23.08,0V3.59a20.34,20.34,0,0,1,23.08,0Z"/><path class="cls-1" d="M20.29,8.75A11.54,11.54,0,1,0,31.82,20.29,11.56,11.56,0,0,0,20.29,8.75Zm0,16.72a5.19,5.19,0,1,1,5.18-5.18A5.18,5.18,0,0,1,20.29,25.47ZM26,16.78a2.24,2.24,0,1,1,2.24-2.24A2.24,2.24,0,0,1,26,16.78Z"/><path class="cls-1" d="M40.57,20.29a20,20,0,0,1-.36,3.82A20.24,20.24,0,0,1,20.29,40.57,20.24,20.24,0,0,1,.36,24.11,20,20,0,0,1,0,20.29,20.19,20.19,0,0,1,6,5.9V20.29c0,.46,0,.93.07,1.38A14.31,14.31,0,0,0,19.19,34.54c.36,0,.73.05,1.1.05s.73,0,1.1-.05A14.3,14.3,0,0,0,34.52,21.67a12.63,12.63,0,0,0,.07-1.38V5.9a20.19,20.19,0,0,1,6,14.39Z"/><path class="cls-1" d="M35.35,46.36a30.14,30.14,0,0,1-30.11,0,30.31,30.31,0,0,0,6.3-4.85,23,23,0,0,0,17.51,0A29.8,29.8,0,0,0,35.35,46.36Z"/></g></g></svg>