<?xml version="1.0" encoding="UTF-8"?>
<svg id="Layer_2" data-name="Layer 2" xmlns="http://www.w3.org/2000/svg" viewBox="0 0 18.11 18.11">
  <defs>
    <style>
      .cls-1 {
        fill: #f6921e;
        stroke-width: 0px;
      }
    </style>
  </defs>
  <g id="Layer_1-2" data-name="Layer 1">
    <path class="cls-1" d="m12.53,2.15C9.67-.72,5.01-.72,2.15,2.15c-2.86,2.86-2.86,7.52,0,10.38,2.58,2.58,6.61,2.83,9.48.76.84.95,3.77,4.29,3.77,4.29,1.51,1.57,3.75-.68,2.18-2.18l-4.29-3.77c2.07-2.87,1.81-6.9-.76-9.48Zm-1.96,8.42c-1.78,1.78-4.68,1.78-6.47,0s-1.78-4.68,0-6.47,4.68-1.78,6.47,0c1.78,1.78,1.78,4.68,0,6.47Z"/>
  </g>
</svg>