<svg id="Layer_1" data-name="Layer 1" xmlns="http://www.w3.org/2000/svg" viewBox="0 0 194.24 31.1"><defs><style>.cls-1{fill:#f69320;}</style></defs><path class="cls-1" d="M179.48,5.51l-.71.71L176.89,8.1l-.7.7L175,7.59l.7-.71L177.56,5l.7-.71Z"/><path class="cls-1" d="M72.36,13h-3a5.4,5.4,0,0,1,1,1.67,5.51,5.51,0,0,1,.36,2,5.38,5.38,0,0,1-.73,2.76,5.28,5.28,0,0,1-2,2,5.46,5.46,0,0,1-8.23-4.75,5.48,5.48,0,0,1,.72-2.77,5.46,5.46,0,0,1,4.75-2.71h7Zm-3.89,1.81a3.58,3.58,0,0,0-1.32-1.33,3.77,3.77,0,0,0-3.68,0,3.74,3.74,0,0,0-1.32,1.33,3.77,3.77,0,0,0,0,3.68,3.79,3.79,0,0,0,1.32,1.32,3.66,3.66,0,0,0,5-1.32,3.7,3.7,0,0,0,0-3.68Z"/><path class="cls-1" d="M84.88,11.15v6.26a4.51,4.51,0,0,1-.64,2.35,4.67,4.67,0,0,1-1.71,1.71,4.7,4.7,0,0,1-4.7,0,4.67,4.67,0,0,1-1.71-1.71,4.6,4.6,0,0,1-.63-2.35V11.15h1.83v6.26a2.77,2.77,0,0,0,.38,1.44,2.89,2.89,0,0,0,3.92,1,2.88,2.88,0,0,0,1.43-2.48V11.15Z"/><path class="cls-1" d="M98.61,20.11a1.51,1.51,0,0,0,1.13.43V22.1a3.36,3.36,0,0,1-1.67-.4A2.68,2.68,0,0,1,97,20.54a4.69,4.69,0,0,1-1.56,1.15,4.55,4.55,0,0,1-1.93.41,4.49,4.49,0,0,1-2.86-1V26.8H88.79V11.15h1.83v6.26A2.87,2.87,0,0,0,91,18.85a3,3,0,0,0,1,1,2.87,2.87,0,0,0,1.44.38A2.84,2.84,0,0,0,96,18.85a2.78,2.78,0,0,0,.39-1.44V11.15h1.83V19A1.54,1.54,0,0,0,98.61,20.11Z"/><path class="cls-1" d="M113.91,19.34a5.42,5.42,0,0,1-1.93,2,5.23,5.23,0,0,1-2.69.77v2.35h-1.88V22.1a5.23,5.23,0,0,1-2.69-.77,5.47,5.47,0,0,1-1.92-2,5.55,5.55,0,0,1,0-5.43,5.47,5.47,0,0,1,1.92-2,5.33,5.33,0,0,1,2.69-.77V8.8h1.88v2.35a5.33,5.33,0,0,1,2.69.77,5.55,5.55,0,0,1,1.93,7.42Zm-9.53-.91a3.52,3.52,0,0,0,3,1.84V13a3.67,3.67,0,0,0-3,5.45Zm6.69,1.32a3.55,3.55,0,0,0,1.26-1.32,3.87,3.87,0,0,0,0-3.62,3.57,3.57,0,0,0-3-1.83v7.29A3.49,3.49,0,0,0,111.07,19.75Z"/><path class="cls-1" d="M119.74,21.38a5.57,5.57,0,0,1-2-7.52,5.46,5.46,0,0,1,4.75-2.71,5.39,5.39,0,0,1,2.77.73,5.23,5.23,0,0,1,2,2,5.6,5.6,0,0,1,0,5.53,5.33,5.33,0,0,1-2,2,5.67,5.67,0,0,1-5.53,0Zm4.6-1.59a3.63,3.63,0,0,0,1.32-1.32,3.68,3.68,0,0,0-1.32-5,3.77,3.77,0,0,0-3.68,0,3.74,3.74,0,0,0-1.32,1.33,3.77,3.77,0,0,0,0,3.68,3.79,3.79,0,0,0,1.32,1.32,3.77,3.77,0,0,0,3.68,0Z"/><path class="cls-1" d="M134.31,20.27V22.1h-.78a3.19,3.19,0,0,1-1.62-.4,2.78,2.78,0,0,1-1.12-1.11A3.29,3.29,0,0,1,130.4,19V11.15h1.83V19a1.24,1.24,0,0,0,1.3,1.3Z"/><path class="cls-1" d="M140.61,13v4.43A2.88,2.88,0,0,0,142,19.89a2.87,2.87,0,0,0,1.44.38V22.1a4.57,4.57,0,0,1-2.35-.63,4.67,4.67,0,0,1-1.71-1.71,4.51,4.51,0,0,1-.64-2.35V13h-3.13V11.15h8.09V13Z"/><path class="cls-1" d="M154.43,11.78a4.81,4.81,0,0,1,1.72,1.72,4.56,4.56,0,0,1,.63,2.34v9.39H155V15.84a2.87,2.87,0,0,0-.38-1.44,3,3,0,0,0-1-1,2.87,2.87,0,0,0-3.92,1,2.78,2.78,0,0,0-.39,1.44V22.1h-1.83V14.28a1.3,1.3,0,0,0-1.3-1.3v0l-.26,0V11.15h.31a3,3,0,0,1,1.47.4,3.16,3.16,0,0,1,1.11,1,4.64,4.64,0,0,1,3.37-1.44A4.56,4.56,0,0,1,154.43,11.78Z"/><path class="cls-1" d="M164.09,13v4.43a2.87,2.87,0,0,0,.38,1.44,3,3,0,0,0,1,1,2.87,2.87,0,0,0,1.44.38V22.1a4.56,4.56,0,0,1-2.34-.63,4.78,4.78,0,0,1-1.72-1.71,4.6,4.6,0,0,1-.63-2.35V13h-3.13V11.15h8.09V13Z"/><path class="cls-1" d="M177.91,11.78a4.78,4.78,0,0,1,1.71,1.72,4.48,4.48,0,0,1,.64,2.34v9.39h-1.83V15.84A2.78,2.78,0,0,0,178,14.4a2.89,2.89,0,0,0-3.92-1,3,3,0,0,0-1,1,2.87,2.87,0,0,0-.38,1.44V22.1h-1.83V14.28a1.31,1.31,0,0,0-1.3-1.3v0l-.27,0V11.15h.31a3,3,0,0,1,1.48.4,3.24,3.24,0,0,1,1.11,1,4.74,4.74,0,0,1,1.51-1.06,4.68,4.68,0,0,1,1.85-.38A4.57,4.57,0,0,1,177.91,11.78Z"/><path class="cls-1" d="M186.77,21.56,190.6,20a3.31,3.31,0,0,0,1.49-1.37,3.9,3.9,0,0,0,.51-2,3.68,3.68,0,0,0-.48-1.86,3.53,3.53,0,0,0-1.32-1.31A3.58,3.58,0,0,0,189,13a3.68,3.68,0,0,0-1.86.48,3.43,3.43,0,0,0-1.31,1.31,3.68,3.68,0,0,0-.48,1.86h-1.83a5.39,5.39,0,0,1,.73-2.77,5.23,5.23,0,0,1,2-2,5.6,5.6,0,0,1,5.53,0,5.33,5.33,0,0,1,2,2,5.48,5.48,0,0,1,.72,2.77,5.8,5.8,0,0,1-.81,3,4.66,4.66,0,0,1-2.24,2l-3.75,1.57a1.25,1.25,0,0,0-.76,1.25V26H185V24.45a3.48,3.48,0,0,1,.43-1.78A2.51,2.51,0,0,1,186.77,21.56Z"/><path class="cls-1" d="M47.59,5.69a11.27,11.27,0,0,0-4.13-4.18A11.73,11.73,0,0,0,37.65,0H11.46A11.69,11.69,0,0,0,5.69,1.51,11,11,0,0,0,1.56,5.69,11.22,11.22,0,0,0,0,11.46a11.25,11.25,0,0,0,1.56,5.77A10.88,10.88,0,0,0,5.69,21.4a12.42,12.42,0,0,0,2.25,1l.49.16,21,7.24,3.85,1.31V27.83a2.62,2.62,0,0,1,1.56-2.62l7.85-3.28a9.79,9.79,0,0,0,4.71-4.13,11.91,11.91,0,0,0,1.68-6.34A11.19,11.19,0,0,0,47.59,5.69Zm-29.5,9.62a7.6,7.6,0,0,1-6.63,3.8,7.91,7.91,0,0,1-3.85-1,7.53,7.53,0,0,1-2.74-2.78,7.3,7.3,0,0,1-1-3.85,7.55,7.55,0,0,1,7.61-7.61,7.2,7.2,0,0,1,3.85,1,7.53,7.53,0,0,1,2.78,2.74,7.91,7.91,0,0,1,1,3.85A7.79,7.79,0,0,1,18.09,15.31Z"/></svg>