<svg id="Layer_1" data-name="Layer 1" xmlns="http://www.w3.org/2000/svg" viewBox="0 0 71.84 45.28"><defs><style>.cls-1{fill:#f69320;}</style></defs><path class="cls-1" d="M69.62,8.32a16.5,16.5,0,0,0-6.05-6.11A17.17,17.17,0,0,0,55.07,0H16.76A17.17,17.17,0,0,0,8.32,2.21,16.13,16.13,0,0,0,2.27,8.32a16.83,16.83,0,0,0,0,16.88,16.06,16.06,0,0,0,6.05,6.11,18,18,0,0,0,3.29,1.44l.72.23L43.1,43.58l5.63,1.92V40.71A3.83,3.83,0,0,1,51,36.88l11.5-4.79A14.39,14.39,0,0,0,69.38,26a17.47,17.47,0,0,0,2.46-9.28A16.44,16.44,0,0,0,69.62,8.32ZM26.46,22.39A11.16,11.16,0,0,1,16.76,28a11.48,11.48,0,0,1-5.63-1.5,11,11,0,0,1-4-4.07,10.78,10.78,0,0,1-1.49-5.63A11,11,0,0,1,16.76,5.63a10.54,10.54,0,0,1,5.63,1.49,11,11,0,0,1,4.07,4A11.48,11.48,0,0,1,28,16.76,11.28,11.28,0,0,1,26.46,22.39Z"/></svg>