<svg id="Layer_1" data-name="Layer 1" xmlns="http://www.w3.org/2000/svg" viewBox="0 0 197.55 91.38"><defs><style>.cls-1{fill:#fff;}</style></defs><path class="cls-1" d="M131,7.89a15.6,15.6,0,0,0-5.73-5.79A16.28,16.28,0,0,0,117.21,0H80.87a16.23,16.23,0,0,0-8,2.1,15.27,15.27,0,0,0-5.74,5.79,15.66,15.66,0,0,0-2.15,8,15.66,15.66,0,0,0,2.15,8,15.27,15.27,0,0,0,5.74,5.79A16.49,16.49,0,0,0,76,31.06l.69.23,29.19,10.05,5.33,1.82V38.62A3.65,3.65,0,0,1,113.35,35l10.91-4.54a13.64,13.64,0,0,0,6.53-5.74,16.58,16.58,0,0,0,2.33-8.8A15.62,15.62,0,0,0,131,7.89ZM90.07,21.24a10.57,10.57,0,0,1-9.2,5.28,10.88,10.88,0,0,1-5.34-1.42,10.67,10.67,0,0,1-5.23-9.2,10.37,10.37,0,0,1,1.42-5.34,10.52,10.52,0,0,1,9.15-5.22,10,10,0,0,1,5.34,1.42,10.42,10.42,0,0,1,3.86,3.8,10.88,10.88,0,0,1,1.42,5.34A10.71,10.71,0,0,1,90.07,21.24Z"/><path class="cls-1" d="M175.61,60.24l-1,1L171.83,64l-1,1L169,63.28l1-1,2.75-2.75,1-1Z"/><path class="cls-1" d="M18.91,71.16h-4.3a8,8,0,0,1,1.48,2.45,7.84,7.84,0,0,1,.53,2.89,7.94,7.94,0,0,1-1.06,4,7.81,7.81,0,0,1-2.91,2.91,7.94,7.94,0,0,1-4,1.06,7.92,7.92,0,0,1-4-1.06,7.81,7.81,0,0,1-2.91-2.91,8.16,8.16,0,0,1,0-8.08,7.81,7.81,0,0,1,2.91-2.91,7.93,7.93,0,0,1,4-1.07h10.3Zm-5.68,2.65a5.35,5.35,0,0,0-9.25,0,5.28,5.28,0,0,0-.71,2.69,5.27,5.27,0,0,0,2.65,4.62,5.18,5.18,0,0,0,2.69.71,5.29,5.29,0,0,0,4.62-2.64,5.33,5.33,0,0,0,.71-2.69A5.28,5.28,0,0,0,13.23,73.81Z"/><path class="cls-1" d="M37.22,68.48v9.16a6.67,6.67,0,0,1-.92,3.44,7,7,0,0,1-2.51,2.5,6.81,6.81,0,0,1-6.87,0,6.89,6.89,0,0,1-2.5-2.5,6.68,6.68,0,0,1-.93-3.44V68.48h2.68v9.16a4,4,0,0,0,.56,2.11,4.19,4.19,0,0,0,7.25,0,4,4,0,0,0,.57-2.11V68.48Z"/><path class="cls-1" d="M57.31,81.59a2.25,2.25,0,0,0,1.66.63v2.29a5,5,0,0,1-2.45-.59,4,4,0,0,1-1.6-1.7,6.7,6.7,0,0,1-2.29,1.68,6.8,6.8,0,0,1-7-.83v8.31H43V68.48h2.68v9.16a4,4,0,0,0,.56,2.11,4.19,4.19,0,0,0,7.25,0A4,4,0,0,0,54,77.64V68.48h2.67V79.93A2.24,2.24,0,0,0,57.31,81.59Z"/><path class="cls-1" d="M79.69,80.47a8,8,0,0,1-2.81,2.91,7.81,7.81,0,0,1-3.94,1.13v3.43H70.19V84.51a7.81,7.81,0,0,1-3.94-1.13,8,8,0,0,1-2.81-2.91,8,8,0,0,1,6.75-12V65.05h2.75v3.43a8.05,8.05,0,0,1,6.75,12ZM65.75,79.14a5.2,5.2,0,0,0,4.44,2.69V71.16a5.22,5.22,0,0,0-4.44,2.68,5.65,5.65,0,0,0,0,5.3Zm9.8,1.92a5.11,5.11,0,0,0,1.83-1.92,5.65,5.65,0,0,0,0-5.3,5.22,5.22,0,0,0-4.44-2.68V81.83A5.11,5.11,0,0,0,75.55,81.06Z"/><path class="cls-1" d="M88.23,83.45a7.81,7.81,0,0,1-2.91-2.91,8.16,8.16,0,0,1,0-8.08,7.81,7.81,0,0,1,2.91-2.91,8.16,8.16,0,0,1,8.08,0,7.81,7.81,0,0,1,2.91,2.91,8.23,8.23,0,0,1,0,8.08,7.81,7.81,0,0,1-2.91,2.91,8.23,8.23,0,0,1-8.08,0ZM95,81.12a5.25,5.25,0,0,0,1.93-1.93,5.33,5.33,0,0,0,.71-2.69A5.32,5.32,0,0,0,95,71.87a5.33,5.33,0,0,0-2.69-.71,5.3,5.3,0,0,0-5.34,5.34,5.27,5.27,0,0,0,2.65,4.62,5.45,5.45,0,0,0,5.38,0Z"/><path class="cls-1" d="M109.53,81.83v2.68h-1.14a4.76,4.76,0,0,1-2.37-.58,4.1,4.1,0,0,1-1.62-1.63,4.73,4.73,0,0,1-.59-2.37V68.48h2.68V79.93a1.82,1.82,0,0,0,1.9,1.9Z"/><path class="cls-1" d="M118.76,71.16v6.48A4.17,4.17,0,0,0,123,81.83v2.68a6.68,6.68,0,0,1-3.44-.93,7,7,0,0,1-2.5-2.5,6.68,6.68,0,0,1-.93-3.44V71.16H111.5V68.48h11.84v2.68Z"/><path class="cls-1" d="M139,69.41a6.94,6.94,0,0,1,2.51,2.51,6.64,6.64,0,0,1,.93,3.43V89.09h-2.68V75.35a4.13,4.13,0,0,0-.56-2.1,4.19,4.19,0,0,0-7.26,0,4.13,4.13,0,0,0-.56,2.1v9.16h-2.68V73.06a1.84,1.84,0,0,0-.56-1.35,1.87,1.87,0,0,0-1.34-.55v0l-.39,0V68.48h.46a4.41,4.41,0,0,1,2.15.59,4.74,4.74,0,0,1,1.63,1.52A6.79,6.79,0,0,1,139,69.41Z"/><path class="cls-1" d="M153.1,71.16v6.48a4.17,4.17,0,0,0,4.19,4.19v2.68a6.68,6.68,0,0,1-3.44-.93,7,7,0,0,1-2.5-2.5,6.68,6.68,0,0,1-.93-3.44V71.16h-4.58V68.48h11.84v2.68Z"/><path class="cls-1" d="M173.32,69.41a7,7,0,0,1,2.5,2.51,6.64,6.64,0,0,1,.93,3.43V89.09h-2.68V75.35a4.13,4.13,0,0,0-.56-2.1,4.19,4.19,0,0,0-7.26,0,4.13,4.13,0,0,0-.56,2.1v9.16H163V73.06a1.84,1.84,0,0,0-.56-1.35,1.87,1.87,0,0,0-1.34-.55v0l-.39,0V68.48h.46a4.41,4.41,0,0,1,2.15.59A4.74,4.74,0,0,1,165,70.59a6.66,6.66,0,0,1,2.22-1.54,6.54,6.54,0,0,1,2.7-.57A6.68,6.68,0,0,1,173.32,69.41Z"/><path class="cls-1" d="M186.27,83.71l5.61-2.29a4.93,4.93,0,0,0,2.18-2,5.75,5.75,0,0,0,.75-2.92,5.39,5.39,0,0,0-.71-2.72,5.16,5.16,0,0,0-1.93-1.92,5.31,5.31,0,0,0-2.69-.7,5.45,5.45,0,0,0-2.72.7,5.13,5.13,0,0,0-1.92,1.92,5.38,5.38,0,0,0-.7,2.72h-2.68a7.93,7.93,0,0,1,1.07-4,7.72,7.72,0,0,1,2.9-2.91,8.16,8.16,0,0,1,8.08,0,7.81,7.81,0,0,1,2.91,2.91,7.93,7.93,0,0,1,1.07,4,8.53,8.53,0,0,1-1.19,4.44A6.89,6.89,0,0,1,193,83.82l-5.49,2.29a1.81,1.81,0,0,0-1.1,1.83v2.29h-2.68V87.94a5.3,5.3,0,0,1,.62-2.61A3.68,3.68,0,0,1,186.27,83.71Z"/></svg>