<svg id="Layer_1" data-name="Layer 1" xmlns="http://www.w3.org/2000/svg" viewBox="0 0 229.15 105.02"><defs><style>.cls-1{fill:#f69320;}</style></defs><path class="cls-1" d="M151.79,9.19a18.25,18.25,0,0,0-6.68-6.75A19,19,0,0,0,135.73,0H93.42a18.88,18.88,0,0,0-9.31,2.44,17.67,17.67,0,0,0-6.68,6.75,18.56,18.56,0,0,0,0,18.64,17.65,17.65,0,0,0,6.68,6.74,18.74,18.74,0,0,0,3.63,1.58l.79.27,34,11.7,6.21,2.11V44.94a4.25,4.25,0,0,1,2.51-4.23l12.69-5.28a15.86,15.86,0,0,0,7.6-6.68,19.33,19.33,0,0,0,2.71-10.24A18.18,18.18,0,0,0,151.79,9.19ZM104.13,24.72a12.33,12.33,0,0,1-10.71,6.15,12.65,12.65,0,0,1-6.21-1.66,12,12,0,0,1-4.43-4.49,11.86,11.86,0,0,1-1.65-6.21,12,12,0,0,1,1.65-6.22A12.21,12.21,0,0,1,93.42,6.21a11.7,11.7,0,0,1,6.22,1.65,12.08,12.08,0,0,1,4.49,4.43,12.65,12.65,0,0,1,1.65,6.22A12.45,12.45,0,0,1,104.13,24.72Z"/><path class="cls-1" d="M203.68,70.11l-1.2,1.2-3.19,3.2-1.2,1.2L196,73.64l1.2-1.2,3.2-3.19,1.2-1.2Z"/><path class="cls-1" d="M21.32,82.82h-5A9.42,9.42,0,0,1,18,85.67,9.31,9.31,0,0,1,18.65,89,9.28,9.28,0,0,1,14,97.12a9.31,9.31,0,0,1-4.71,1.24,9.24,9.24,0,0,1-4.69-1.24,9.36,9.36,0,0,1,0-16.18A9.24,9.24,0,0,1,9.32,79.7h12ZM14.71,85.9a6.07,6.07,0,0,0-2.25-2.25,6.32,6.32,0,0,0-6.26,0,6.22,6.22,0,0,0,0,10.76,6.32,6.32,0,0,0,6.26,0,6.29,6.29,0,0,0,2.25-8.51Z"/><path class="cls-1" d="M42.63,79.7V90.36a7.77,7.77,0,0,1-1.08,4,8.14,8.14,0,0,1-2.91,2.92,7.95,7.95,0,0,1-8,0,8.17,8.17,0,0,1-2.92-2.92,7.87,7.87,0,0,1-1.08-4V79.7h3.12V90.36a4.8,4.8,0,0,0,.65,2.45,4.9,4.9,0,0,0,1.78,1.78,4.94,4.94,0,0,0,4.9,0,4.87,4.87,0,0,0,1.77-1.78,4.7,4.7,0,0,0,.65-2.45V79.7Z"/><path class="cls-1" d="M66,95a2.6,2.6,0,0,0,1.93.73v2.67a5.73,5.73,0,0,1-2.85-.7,4.54,4.54,0,0,1-1.86-2,8,8,0,0,1-2.67,2,7.79,7.79,0,0,1-3.27.71,7.65,7.65,0,0,1-4.88-1.68v9.67H49.29V79.7h3.12V90.36a4.8,4.8,0,0,0,.65,2.45,5,5,0,0,0,1.77,1.78,5,5,0,0,0,4.91,0,5,5,0,0,0,1.77-1.78,4.8,4.8,0,0,0,.65-2.45V79.7h3.12V93A2.6,2.6,0,0,0,66,95Z"/><path class="cls-1" d="M92.06,93.65A9.27,9.27,0,0,1,88.78,97a9.11,9.11,0,0,1-4.58,1.32v4H81v-4A9.14,9.14,0,0,1,76.41,97a9.4,9.4,0,0,1,0-16A9.14,9.14,0,0,1,81,79.7v-4h3.2v4A9.11,9.11,0,0,1,88.78,81a9.35,9.35,0,0,1,3.28,3.39,9.49,9.49,0,0,1,0,9.24ZM75.83,92.11A6,6,0,0,0,78,94.35a6.2,6.2,0,0,0,3,.89V82.82a6.2,6.2,0,0,0-3,.89,6.07,6.07,0,0,0-2.13,2.23,6.57,6.57,0,0,0,0,6.17Zm11.4,2.24a6.05,6.05,0,0,0,2.14-2.24,6.57,6.57,0,0,0,0-6.17,6.07,6.07,0,0,0-5.17-3.12V95.24A6.13,6.13,0,0,0,87.23,94.35Z"/><path class="cls-1" d="M102,97.12a9.53,9.53,0,1,1,4.7,1.24A9.19,9.19,0,0,1,102,97.12Zm7.83-2.71a6.32,6.32,0,1,0-3.13.83A6.07,6.07,0,0,0,109.82,94.41Z"/><path class="cls-1" d="M126.79,95.24v3.12h-1.33a5.59,5.59,0,0,1-2.76-.68,4.86,4.86,0,0,1-1.89-1.9,5.42,5.42,0,0,1-.68-2.75V79.7h3.12V93a2.17,2.17,0,0,0,.61,1.6,2.2,2.2,0,0,0,1.6.61Z"/><path class="cls-1" d="M137.52,82.82v7.54a4.71,4.71,0,0,0,.66,2.45,4.83,4.83,0,0,0,4.22,2.43v3.12a7.77,7.77,0,0,1-4-1.08,8.25,8.25,0,0,1-2.92-2.92,7.76,7.76,0,0,1-1.07-4V82.82h-5.33V79.7h13.77v3.12Z"/><path class="cls-1" d="M161.05,80.78A8.09,8.09,0,0,1,164,83.7a7.77,7.77,0,0,1,1.08,4v16h-3.12v-16a4.88,4.88,0,1,0-9.75,0V98.36h-3.12V85a2.2,2.2,0,0,0-2.21-2.21v0l-.45,0V79.7h.53a5.22,5.22,0,0,1,2.5.68,5.58,5.58,0,0,1,1.9,1.78,8,8,0,0,1,5.72-2.46A7.77,7.77,0,0,1,161.05,80.78Z"/><path class="cls-1" d="M177.49,82.82v7.54a4.8,4.8,0,0,0,.65,2.45,4.9,4.9,0,0,0,1.78,1.78,4.79,4.79,0,0,0,2.44.65v3.12a7.74,7.74,0,0,1-4-1.08,8.09,8.09,0,0,1-2.92-2.92,7.77,7.77,0,0,1-1.08-4V82.82H169V79.7h13.78v3.12Z"/><path class="cls-1" d="M201,80.78a8.07,8.07,0,0,1,2.91,2.92,7.77,7.77,0,0,1,1.08,4v16H201.9v-16a4.88,4.88,0,0,0-9.76,0V98.36H189V85a2.22,2.22,0,0,0-2.22-2.21v0l-.45,0V79.7h.54a5.26,5.26,0,0,1,2.5.68,5.64,5.64,0,0,1,1.89,1.78A7.92,7.92,0,0,1,201,80.78Z"/><path class="cls-1" d="M216.09,97.42l6.53-2.66a5.84,5.84,0,0,0,2.55-2.33A6.79,6.79,0,0,0,226,89a6.18,6.18,0,0,0-3.06-5.4,6.2,6.2,0,0,0-3.14-.81,6.27,6.27,0,0,0-3.16.81,6,6,0,0,0-2.24,2.24,6.3,6.3,0,0,0-.81,3.16H210.5a9.28,9.28,0,0,1,4.62-8.09,9.53,9.53,0,0,1,9.4,0A9.26,9.26,0,0,1,229.15,89a9.84,9.84,0,0,1-1.39,5.17A8.07,8.07,0,0,1,224,97.56l-6.39,2.66a2.11,2.11,0,0,0-1.28,2.13V105h-3.12v-2.67a6.06,6.06,0,0,1,.72-3A4.33,4.33,0,0,1,216.09,97.42Z"/></svg>